<?xml version="1.0" standalone="no"?>
<!DOCTYPE svg PUBLIC "-//W3C//DTD SVG 20010904//EN"
 "http://www.w3.org/TR/2001/REC-SVG-20010904/DTD/svg10.dtd">
<svg version="1.0" xmlns="http://www.w3.org/2000/svg"
 width="512.000000pt" height="512.000000pt" viewBox="0 0 512.000000 512.000000"
 preserveAspectRatio="xMidYMid meet">
<metadata>
Created by potrace 1.11, written by Peter Selinger 2001-2013
</metadata>
<g transform="translate(0.000000,512.000000) scale(0.100000,-0.100000)"
fill="#000000" stroke="none">
<path d="M300 2918 c0 -2078 1 -2205 18 -2237 21 -43 57 -70 103 -77 49 -8
4192 897 4266 932 55 26 99 75 119 133 11 29 13 380 14 1744 l0 1707 -2260 0
-2260 0 0 -2202z m1160 902 c0 -5 -18 -10 -40 -10 l-40 0 0 -120 c0 -73 -4
-120 -10 -120 -6 0 -10 47 -10 120 l0 120 -35 0 c-19 0 -35 5 -35 10 0 6 35
10 85 10 50 0 85 -4 85 -10z m100 -50 l0 -61 58 3 57 3 3 58 c2 31 7 57 12 57
6 0 10 -55 10 -130 0 -80 -4 -130 -10 -130 -6 0 -10 27 -10 60 l0 60 -60 0
-60 0 0 -60 c0 -33 -4 -60 -10 -60 -6 0 -10 50 -10 130 0 80 4 130 10 130 6 0
10 -27 10 -60z m370 50 c0 -5 -25 -10 -55 -10 l-55 0 0 -50 0 -50 51 0 c31 0
48 -4 44 -10 -3 -5 -26 -10 -51 -10 l-44 0 0 -50 0 -50 55 0 c30 0 55 -4 55
-10 0 -6 -28 -10 -65 -10 l-65 0 0 130 0 130 65 0 c37 0 65 -4 65 -10z m299
-44 c10 -21 13 -72 12 -196 l-2 -167 41 -16 c60 -23 53 -38 -24 -49 -27 -4
-36 -42 -46 -193 -4 -71 -11 -166 -15 -210 -5 -63 -4 -84 8 -100 14 -19 17
-19 50 -3 70 33 132 150 178 335 30 123 36 178 19 188 -20 12 -9 25 22 25 40
0 96 -42 114 -86 19 -46 18 -198 -2 -287 -12 -53 -26 -83 -51 -111 -38 -45
-38 -60 0 -64 19 -2 34 5 52 24 28 30 213 388 233 449 32 104 107 138 199 92
54 -28 63 -41 63 -89 0 -29 -28 -88 -41 -88 -4 0 -5 25 -2 55 5 45 3 56 -11
61 -38 15 -91 -67 -83 -129 8 -59 78 -207 99 -207 25 0 105 85 119 128 32 100
108 206 172 239 38 19 87 10 127 -24 29 -24 66 -91 56 -100 -11 -11 -43 10
-64 43 -32 49 -59 43 -94 -21 -15 -27 -30 -68 -34 -89 -3 -22 -15 -64 -25 -95
-24 -69 -24 -115 1 -168 43 -97 121 -17 178 183 26 91 31 99 55 102 17 2 29
-3 35 -15 15 -29 24 -184 13 -238 -20 -105 -23 -155 -7 -155 26 0 66 61 143
213 62 125 79 170 103 275 16 69 35 129 42 133 42 27 78 -18 78 -95 0 -25 4
-47 8 -50 5 -3 21 9 36 25 36 38 91 61 136 57 87 -7 92 -158 13 -452 -14 -54
-15 -67 -3 -80 12 -15 15 -15 33 1 24 21 86 151 148 310 44 113 59 135 59 87
0 -25 -100 -285 -141 -367 -47 -93 -97 -112 -148 -58 -62 66 -66 166 -14 362
20 76 34 141 31 144 -3 3 -17 1 -31 -4 -17 -7 -42 -37 -72 -88 -64 -110 -86
-174 -89 -263 -5 -128 -47 -172 -112 -117 -26 23 -28 30 -28 101 -1 42 -1 76
-2 76 0 0 -20 -38 -43 -84 -43 -84 -114 -169 -152 -181 -11 -4 -33 -2 -49 5
-26 11 -34 23 -59 92 l-10 28 -47 -33 c-39 -27 -54 -32 -104 -32 -44 0 -66 5
-87 21 -35 26 -62 100 -63 172 l0 53 -50 -42 -50 -42 6 -61 c5 -48 2 -72 -14
-111 -58 -147 -113 -195 -198 -174 -52 13 -100 56 -109 98 -9 41 14 80 80 138
39 34 55 55 54 73 0 27 -52 246 -60 254 -3 3 -42 -69 -88 -160 -96 -191 -131
-234 -190 -234 -22 0 -48 8 -60 18 -22 18 -61 116 -61 154 0 17 -9 7 -33 -35
-38 -68 -111 -145 -145 -154 -51 -12 -130 56 -167 145 -8 17 -17 59 -21 93 -4
33 -10 57 -14 52 -3 -4 -28 -62 -55 -128 -66 -162 -121 -281 -146 -316 -51
-73 -192 0 -238 124 -18 47 -13 102 24 247 19 76 35 143 35 148 0 9 -89 37
-95 30 -2 -2 -20 -44 -40 -95 -49 -122 -180 -390 -211 -430 -14 -18 -34 -33
-44 -33 -34 0 -68 67 -90 180 -11 57 -24 108 -29 113 -4 4 -32 7 -62 5 -48 -3
-56 -7 -75 -36 -12 -18 -26 -51 -29 -75 -4 -23 -40 -108 -79 -190 -58 -121
-74 -147 -91 -145 -36 5 -48 75 -35 218 24 272 53 434 141 784 43 173 49 188
87 228 22 24 26 26 46 12 12 -7 33 -33 46 -55 20 -36 25 -67 36 -213 7 -94 20
-209 29 -256 8 -47 22 -141 30 -210 15 -119 46 -259 64 -289 17 -27 41 0 94
106 53 104 167 379 167 400 0 6 -16 27 -35 47 -40 43 -53 93 -35 137 25 60
113 74 147 22 15 -23 13 -44 -13 -131 -5 -18 45 -34 83 -27 23 4 34 13 42 35
5 17 11 30 13 30 12 0 141 -30 145 -33 6 -7 -68 -288 -106 -404 -17 -50 -34
-116 -37 -146 -6 -51 -5 -56 19 -72 51 -33 78 3 172 225 93 217 126 309 141
388 18 94 18 92 -7 92 -11 0 -30 5 -41 11 -21 11 -21 12 -3 25 10 8 29 14 41
14 13 0 25 4 28 9 3 5 15 58 26 117 24 123 33 155 67 232 26 60 49 66 72 18z
m359 -249 c12 -11 22 -31 22 -43 0 -44 -74 -60 -110 -24 -25 25 -26 54 -1 79
23 23 55 18 89 -12z m11 -1071 c24 -25 26 -33 29 -141 l4 -115 -35 -35 c-25
-25 -44 -35 -65 -35 -88 0 -122 47 -122 171 0 47 5 101 11 118 25 71 123 91
178 37z m311 19 c46 -24 60 -62 60 -165 0 -98 -12 -136 -52 -164 -37 -26 -93
-20 -130 13 -33 29 -33 29 -36 138 -3 95 0 112 18 141 32 51 86 65 140 37z
m846 -17 c29 -29 44 -88 22 -88 -9 0 -18 12 -21 29 -8 39 -33 61 -68 61 -66 0
-89 -38 -89 -150 0 -114 22 -150 94 -150 37 0 66 27 66 62 0 10 7 18 15 18 18
0 18 -7 4 -49 -27 -77 -153 -80 -188 -4 -19 39 -25 160 -12 210 16 60 63 97
115 90 22 -3 49 -16 62 -29z m298 22 c14 -5 35 -24 46 -42 18 -29 21 -46 18
-141 -3 -109 -3 -109 -36 -138 -56 -50 -133 -36 -167 31 -21 40 -21 200 0 240
26 50 84 71 139 50z m-1744 -10 c0 -6 -32 -10 -75 -10 l-75 0 0 -70 0 -70 65
0 c37 0 65 -4 65 -10 0 -6 -28 -10 -65 -10 l-64 0 -3 -82 c-2 -54 -7 -83 -15
-86 -10 -3 -13 36 -13 172 l0 176 90 0 c53 0 90 -4 90 -10z m939 -6 c34 -24
51 -75 51 -154 0 -128 -36 -172 -143 -174 l-62 -1 -3 173 -2 172 68 0 c46 0
75 -5 91 -16z m1004 -300 c9 -9 -4 -34 -18 -34 -14 0 -27 25 -18 34 4 3 12 6
18 6 6 0 14 -3 18 -6z"/>
<path d="M2187 3733 c-16 -30 -16 -30 9 -25 25 5 30 17 15 41 -7 11 -12 7 -24
-16z"/>
<path d="M1014 3642 c-5 -4 -10 -16 -12 -27 -2 -18 -2 -18 8 -2 6 9 17 17 25
17 8 0 19 -8 24 -17 9 -15 10 -16 11 -2 0 18 -42 41 -56 31z"/>
<path d="M1045 3560 c4 -6 11 -8 16 -5 14 9 11 15 -7 15 -8 0 -12 -5 -9 -10z"/>
<path d="M1055 3520 c-3 -5 -3 -14 0 -20 3 -5 1 -10 -4 -10 -6 0 -11 5 -11 10
0 6 -7 10 -16 10 -8 0 -12 -5 -9 -10 4 -6 2 -17 -4 -24 -9 -11 -6 -15 14 -20
18 -5 25 -13 25 -31 0 -30 4 -31 28 -7 23 23 26 62 5 62 -9 0 -13 6 -9 15 3 8
1 15 -5 15 -6 0 -7 5 -4 10 3 6 4 10 1 10 -3 0 -8 -4 -11 -10z m-5 -50 c0 -5
-2 -10 -4 -10 -3 0 -8 5 -11 10 -3 6 -1 10 4 10 6 0 11 -4 11 -10z"/>
<path d="M950 3486 c0 -9 39 -13 51 -5 10 6 4 9 -18 9 -18 0 -33 -2 -33 -4z"/>
<path d="M940 3460 c-8 -5 -11 -12 -7 -16 4 -4 15 0 24 9 18 18 8 23 -17 7z"/>
<path d="M971 3451 c-12 -8 -12 -12 -3 -24 7 -8 14 -28 15 -43 1 -22 7 -29 24
-30 15 -1 20 3 16 12 -6 17 9 18 25 2 9 -9 12 -9 12 3 0 9 -13 28 -30 42 -16
15 -30 32 -30 37 0 12 -11 13 -29 1z m46 -47 c-3 -3 -12 -4 -19 -1 -8 3 -5 6
6 6 11 1 17 -2 13 -5z"/>
<path d="M930 3422 c0 -5 7 -17 16 -28 15 -18 15 -18 5 2 -6 12 -7 24 -4 28 3
3 1 6 -5 6 -7 0 -12 -4 -12 -8z"/>
<path d="M2167 3403 c-19 -19 -5 -38 28 -39 36 -1 45 12 23 34 -13 13 -41 16
-51 5z"/>
<path d="M2940 3400 c0 -5 5 -10 11 -10 5 0 7 5 4 10 -3 6 -8 10 -11 10 -2 0
-4 -4 -4 -10z"/>
<path d="M1493 3385 c-3 -9 -3 -19 1 -22 7 -7 36 16 36 28 0 15 -30 10 -37 -6z"/>
<path d="M2966 3384 c-3 -9 -4 -20 0 -25 3 -5 -5 -9 -18 -10 -13 0 -17 -3 -10
-6 8 -3 29 3 47 13 26 14 32 21 23 31 -9 11 -13 10 -24 -4 -13 -17 -14 -17 -8
0 8 21 -2 23 -10 1z"/>
<path d="M2080 3380 c-13 -8 -12 -10 3 -10 9 0 17 5 17 10 0 12 -1 12 -20 0z"/>
<path d="M2886 3355 c4 -8 7 -15 9 -15 1 0 8 7 15 15 10 13 9 15 -8 15 -15 0
-20 -5 -16 -15z"/>
<path d="M1524 3334 c-10 -40 11 -52 25 -13 14 40 14 39 -4 39 -8 0 -18 -12
-21 -26z"/>
<path d="M967 3300 c12 -13 0 -46 -22 -62 -6 -5 -5 -8 3 -8 7 0 17 11 22 24 5
13 14 26 19 27 6 2 1 10 -11 18 -16 9 -19 9 -11 1z"/>
<path d="M1056 3295 c-11 -8 -15 -15 -9 -15 6 0 16 7 23 15 16 19 11 19 -14 0z"/>
<path d="M2877 3303 c-4 -3 -7 -11 -7 -17 0 -6 5 -5 12 2 6 6 9 14 7 17 -3 3
-9 2 -12 -2z"/>
<path d="M3281 3268 c0 -12 3 -17 6 -10 2 6 9 9 15 6 6 -4 9 -1 6 6 -8 24 -28
23 -27 -2z"/>
<path d="M1019 3239 l-24 -20 28 17 c15 9 27 18 27 20 0 8 -8 4 -31 -17z"/>
<path d="M1795 3227 c-15 -36 -35 -57 -35 -38 0 6 -9 11 -19 11 -11 0 -23 5
-26 10 -9 15 -25 12 -25 -5 0 -10 10 -15 28 -15 15 0 34 -6 41 -12 10 -11 14
-10 22 5 6 9 16 17 24 17 18 0 30 39 16 53 -7 7 -15 0 -26 -26z"/>
<path d="M3955 3241 c-3 -6 -10 -9 -15 -6 -5 3 -12 1 -15 -5 -4 -6 -1 -9 6 -8
6 2 14 -3 16 -10 3 -7 1 -12 -4 -11 -18 3 -33 -1 -33 -10 0 -5 11 -8 24 -8 27
0 54 43 38 59 -6 6 -12 6 -17 -1z"/>
<path d="M911 3224 c0 -11 3 -14 6 -6 3 7 2 16 -1 19 -3 4 -6 -2 -5 -13z"/>
<path d="M1097 3180 c-12 -30 -40 -180 -34 -186 3 -3 20 -4 39 -2 l34 3 -16
100 c-9 55 -19 93 -23 85z"/>
<path d="M1732 3155 c-1 -24 15 -73 19 -55 0 3 2 13 4 23 2 9 -1 15 -5 12 -5
-3 -11 7 -13 22 l-4 28 -1 -30z"/>
<path d="M3510 3120 c0 -5 9 -10 20 -10 11 0 20 5 20 10 0 6 -9 10 -20 10 -11
0 -20 -4 -20 -10z"/>
<path d="M870 3099 c0 -5 5 -7 10 -4 6 3 10 8 10 11 0 2 -4 4 -10 4 -5 0 -10
-5 -10 -11z"/>
<path d="M2122 3093 c-13 -5 -7 -23 9 -23 6 0 8 4 5 9 -4 5 0 12 6 14 7 3 9 5
3 5 -5 0 -16 -2 -23 -5z"/>
<path d="M1660 3065 c0 -8 5 -15 10 -15 6 0 10 7 10 15 0 8 -4 15 -10 15 -5 0
-10 -7 -10 -15z"/>
<path d="M1710 3073 c0 -6 8 -17 18 -24 16 -13 16 -13 2 6 -8 11 -16 22 -17
24 -2 2 -3 0 -3 -6z"/>
<path d="M1770 3039 c-6 -11 -10 -25 -8 -30 2 -5 8 4 15 21 13 34 9 40 -7 9z"/>
<path d="M2456 3042 c-3 -5 1 -9 9 -9 8 0 12 4 9 9 -3 4 -7 8 -9 8 -2 0 -6 -4
-9 -8z"/>
<path d="M3530 3030 c-22 -6 -23 -8 -7 -15 20 -8 47 0 47 15 0 11 -4 11 -40 0z"/>
<path d="M3850 3029 c0 -5 5 -7 10 -4 6 3 10 8 10 11 0 2 -4 4 -10 4 -5 0 -10
-5 -10 -11z"/>
<path d="M946 3020 c-15 -5 -16 -9 -7 -14 7 -5 18 -3 24 3 14 14 6 20 -17 11z"/>
<path d="M2948 3023 c6 -2 18 -2 25 0 6 3 1 5 -13 5 -14 0 -19 -2 -12 -5z"/>
<path d="M4110 3025 c0 -5 5 -17 10 -25 5 -8 10 -10 10 -5 0 6 -5 17 -10 25
-5 8 -10 11 -10 5z"/>
<path d="M1645 3010 c-8 -13 5 -13 25 0 13 8 13 10 -2 10 -9 0 -20 -4 -23 -10z"/>
<path d="M2903 2998 c-1 -11 1 -16 5 -12 4 5 11 12 15 15 5 3 2 9 -5 12 -9 3
-14 -3 -15 -15z"/>
<path d="M3246 3011 c-4 -7 -5 -15 -2 -18 9 -9 19 4 14 18 -4 11 -6 11 -12 0z"/>
<path d="M1690 3000 c0 -5 5 -10 11 -10 5 0 7 5 4 10 -3 6 -8 10 -11 10 -2 0
-4 -4 -4 -10z"/>
<path d="M2488 3003 c7 -3 16 -2 19 1 4 3 -2 6 -13 5 -11 0 -14 -3 -6 -6z"/>
<path d="M3535 2960 c3 -5 8 -10 11 -10 2 0 4 5 4 10 0 6 -5 10 -11 10 -5 0
-7 -4 -4 -10z"/>
<path d="M4053 2956 c3 -24 27 -34 27 -11 0 9 -4 14 -9 11 -5 -4 -12 0 -15 6
-3 7 -5 4 -3 -6z"/>
<path d="M4090 2962 c0 -4 9 -8 20 -8 11 0 20 4 20 8 0 4 -9 8 -20 8 -11 0
-20 -4 -20 -8z"/>
<path d="M880 2950 c8 -5 20 -10 25 -10 6 0 3 5 -5 10 -8 5 -19 10 -25 10 -5
0 -3 -5 5 -10z"/>
<path d="M2436 2953 c-9 -10 -7 -25 3 -19 5 4 12 0 14 -6 4 -8 6 -7 6 4 1 19
-13 31 -23 21z"/>
<path d="M4090 2926 c0 -9 5 -16 10 -16 6 0 10 4 10 9 0 6 -4 13 -10 16 -5 3
-10 -1 -10 -9z"/>
<path d="M826 2923 c-11 -11 -6 -23 9 -23 8 0 15 4 15 9 0 13 -16 22 -24 14z"/>
<path d="M1710 2920 c0 -5 7 -7 15 -4 8 4 15 8 15 10 0 2 -7 4 -15 4 -8 0 -15
-4 -15 -10z"/>
<path d="M1626 2885 c-3 -8 -1 -15 3 -15 5 0 11 7 15 15 3 8 1 15 -3 15 -5 0
-11 -7 -15 -15z"/>
<path d="M3200 2896 c0 -2 7 -9 15 -16 12 -10 15 -10 15 4 0 9 -7 16 -15 16
-8 0 -15 -2 -15 -4z"/>
<path d="M831 2864 c-25 -32 -28 -69 -5 -60 9 3 24 6 34 6 20 0 21 27 1 39 -6
4 -9 15 -5 24 9 25 -2 21 -25 -9z m34 -34 c-3 -5 -10 -10 -16 -10 -5 0 -9 5
-9 10 0 6 7 10 16 10 8 0 12 -4 9 -10z"/>
<path d="M936 2875 c-3 -8 -1 -15 4 -15 13 0 22 18 11 24 -5 3 -11 -1 -15 -9z"/>
<path d="M2916 2876 c21 -15 30 -14 19 3 -3 6 -14 11 -23 11 -13 0 -13 -2 4
-14z"/>
<path d="M3795 2880 c3 -5 8 -10 11 -10 2 0 4 5 4 10 0 6 -5 10 -11 10 -5 0
-7 -4 -4 -10z"/>
<path d="M1690 2870 c-13 -8 -12 -10 3 -10 9 0 17 5 17 10 0 12 -1 12 -20 0z"/>
<path d="M2120 2876 c0 -2 7 -7 16 -10 8 -3 12 -2 9 4 -6 10 -25 14 -25 6z"/>
<path d="M2818 2819 c-27 -25 -48 -53 -48 -63 0 -22 48 -40 66 -25 18 15 37
78 32 109 -3 24 -5 23 -50 -21z"/>
<path d="M3525 2839 c-4 -6 -4 -13 -1 -16 3 -3 1 -12 -5 -20 -7 -7 -7 -13 -2
-13 8 0 33 42 33 55 0 9 -19 5 -25 -6z"/>
<path d="M2990 2790 c0 -5 4 -10 9 -10 6 0 13 5 16 10 3 6 -1 10 -9 10 -9 0
-16 -4 -16 -10z"/>
<path d="M4110 2796 c0 -2 7 -6 15 -10 8 -3 15 -1 15 4 0 6 -7 10 -15 10 -8 0
-15 -2 -15 -4z"/>
<path d="M808 2773 c7 -3 16 -2 19 1 4 3 -2 6 -13 5 -11 0 -14 -3 -6 -6z"/>
<path d="M853 2766 c0 -16 45 -26 73 -15 16 6 14 8 -11 14 -16 4 -37 9 -46 11
-9 2 -16 -2 -16 -10z"/>
<path d="M870 2715 c0 -8 4 -15 8 -15 5 0 9 7 9 15 0 8 -4 15 -9 15 -4 0 -8
-7 -8 -15z"/>
<path d="M855 2600 c-3 -5 -1 -10 4 -10 6 0 11 5 11 10 0 6 -2 10 -4 10 -3 0
-8 -4 -11 -10z"/>
<path d="M2540 3481 c0 -6 4 -13 10 -16 6 -3 7 1 4 9 -7 18 -14 21 -14 7z"/>
<path d="M2465 2435 c-23 -22 -25 -31 -25 -123 0 -85 3 -103 21 -126 26 -34
88 -37 117 -5 31 33 42 138 22 211 -19 68 -89 90 -135 43z"/>
<path d="M2806 2437 c-44 -44 -46 -199 -4 -252 28 -36 88 -35 117 1 18 23 21
41 21 126 0 92 -2 101 -25 123 -32 32 -78 33 -109 2z"/>
<path d="M3955 2435 c-23 -22 -25 -31 -25 -123 0 -85 3 -103 21 -126 26 -33
86 -37 114 -6 43 47 42 213 -1 257 -31 31 -77 30 -109 -2z"/>
<path d="M3120 2311 l0 -151 46 0 c37 0 51 5 75 29 28 28 29 33 29 120 0 79
-3 93 -23 117 -18 21 -35 28 -75 32 l-52 5 0 -152z"/>
</g>
</svg>
